<svg width="88" height="61" viewBox="0 0 88 61" fill="none" xmlns="http://www.w3.org/2000/svg">
<mask id="mask0_1224_219" style="mask-type:alpha" maskUnits="userSpaceOnUse" x="0" y="0" width="88" height="61">
<rect width="88" height="61" transform="matrix(1 0 0 -1 0 61)" fill="#93BC9C"/>
</mask>
<g mask="url(#mask0_1224_219)">
<g filter="url(#filter0_d_1224_219)">
<path d="M73.7586 8H13.2414C12.0035 8 11 9.0035 11 10.2414V21.4483C11 22.6862 12.0035 23.6897 13.2414 23.6897H73.7586C74.9965 23.6897 76 22.6862 76 21.4483V10.2414C76 9.0035 74.9965 8 73.7586 8Z" fill="white"/>
</g>
<path d="M54.0345 11.5862H30.2759C29.5331 11.5862 28.931 12.1883 28.931 12.931C28.931 13.6738 29.5331 14.2759 30.2759 14.2759H54.0345C54.7772 14.2759 55.3793 13.6738 55.3793 12.931C55.3793 12.1883 54.7772 11.5862 54.0345 11.5862Z" fill="#93BC9C"/>
<path d="M37 17.4138H30.2759C29.5331 17.4138 28.931 18.0159 28.931 18.7586C28.931 19.5014 29.5331 20.1035 30.2759 20.1035H37C37.7427 20.1035 38.3448 19.5014 38.3448 18.7586C38.3448 18.0159 37.7427 17.4138 37 17.4138Z" fill="#222226"/>
<path d="M23.1035 9.34483H14.5862C13.3483 9.34483 12.3448 10.3483 12.3448 11.5862V20.1035C12.3448 21.3413 13.3483 22.3448 14.5862 22.3448H23.1035C24.3413 22.3448 25.3448 21.3413 25.3448 20.1035V11.5862C25.3448 10.3483 24.3413 9.34483 23.1035 9.34483Z" fill="#AF9C4D"/>
<path d="M17.8236 17.3152H18.7202L18.73 16.97C18.73 16.5164 19.016 16.398 19.4204 16.2698C19.826 16.1544 20.183 15.9101 20.4374 15.5738C20.6919 15.2375 20.8299 14.8276 20.8307 14.4059C20.8395 14.1484 20.7949 13.8919 20.6995 13.6526C20.6041 13.4133 20.4601 13.1964 20.2765 13.0156C20.093 12.8348 19.8739 12.6941 19.6332 12.6024C19.3924 12.5107 19.1353 12.47 18.878 12.4828C18.6061 12.4768 18.3358 12.5262 18.0835 12.6279C17.8312 12.7295 17.6022 12.8814 17.4104 13.0742C17.2186 13.267 17.068 13.4968 16.9676 13.7496C16.8673 14.0024 16.8193 14.2729 16.8267 14.5448H17.7537C17.7502 14.3947 17.7767 14.2454 17.8316 14.1056C17.8865 13.9659 17.9688 13.8385 18.0736 13.731C18.1784 13.6234 18.3036 13.5379 18.4419 13.4793C18.5801 13.4208 18.7287 13.3905 18.8789 13.3901C19.0143 13.3822 19.1498 13.4036 19.2762 13.4528C19.4026 13.502 19.517 13.5778 19.6115 13.6751C19.706 13.7724 19.7784 13.8889 19.8239 14.0167C19.8693 14.1445 19.8867 14.2806 19.8749 14.4157C19.869 14.6344 19.7929 14.8454 19.658 15.0177C19.523 15.1899 19.3363 15.3142 19.1254 15.3724L18.8 15.5015C18.4813 15.5782 18.2032 15.7719 18.0205 16.044C17.8379 16.3161 17.7641 16.6469 17.8138 16.9709L17.8236 17.3152ZM18.2674 19.4463C18.3552 19.4494 18.4427 19.4349 18.5248 19.4036C18.6069 19.3723 18.6819 19.3249 18.7453 19.2641C18.8088 19.2033 18.8594 19.1305 18.8942 19.0498C18.929 18.9692 18.9472 18.8823 18.9479 18.7945C18.9471 18.7067 18.9288 18.62 18.8939 18.5394C18.8591 18.4589 18.8084 18.3861 18.745 18.3254C18.6816 18.2648 18.6066 18.2174 18.5246 18.1862C18.4426 18.155 18.3551 18.1405 18.2674 18.1436C18.1797 18.1405 18.0923 18.155 18.0102 18.1862C17.9282 18.2174 17.8533 18.2648 17.7898 18.3254C17.7264 18.3861 17.6758 18.4589 17.6409 18.5394C17.6061 18.62 17.5877 18.7067 17.5869 18.7945C17.5876 18.8823 17.6059 18.9692 17.6407 19.0498C17.6755 19.1305 17.7261 19.2033 17.7895 19.2641C17.853 19.3249 17.9279 19.3723 18.01 19.4036C18.0921 19.4349 18.1796 19.4494 18.2674 19.4463Z" fill="white"/>
<g filter="url(#filter1_d_1224_219)">
<path d="M73.7586 26.7629H13.2414C12.0035 26.7629 11 27.7664 11 29.0043V40.2112C11 41.449 12.0035 42.4525 13.2414 42.4525H73.7586C74.9965 42.4525 76 41.449 76 40.2112V29.0043C76 27.7664 74.9965 26.7629 73.7586 26.7629Z" fill="white"/>
</g>
<path d="M54.0345 30.3491H30.2759C29.5331 30.3491 28.931 30.9512 28.931 31.6939C28.931 32.4367 29.5331 33.0388 30.2759 33.0388H54.0345C54.7772 33.0388 55.3793 32.4367 55.3793 31.6939C55.3793 30.9512 54.7772 30.3491 54.0345 30.3491Z" fill="#93BC9C"/>
<path d="M37 36.1767H30.2759C29.5331 36.1767 28.931 36.7788 28.931 37.5215C28.931 38.2642 29.5331 38.8663 30.2759 38.8663H37C37.7427 38.8663 38.3448 38.2642 38.3448 37.5215C38.3448 36.7788 37.7427 36.1767 37 36.1767Z" fill="#222226"/>
<path d="M23.1035 28.1077H14.5862C13.3483 28.1077 12.3448 29.1112 12.3448 30.3491V38.8663C12.3448 40.1042 13.3483 41.1077 14.5862 41.1077H23.1035C24.3413 41.1077 25.3448 40.1042 25.3448 38.8663V30.3491C25.3448 29.1112 24.3413 28.1077 23.1035 28.1077Z" fill="#B64839"/>
<path d="M17.8236 36.0781H18.7202L18.73 35.7329C18.73 35.2792 19.016 35.1609 19.4204 35.0327C19.826 34.9173 20.183 34.673 20.4374 34.3367C20.6919 34.0004 20.8299 33.5904 20.8307 33.1688C20.8395 32.9113 20.7949 32.6548 20.6995 32.4155C20.6041 32.1762 20.4601 31.9593 20.2765 31.7785C20.093 31.5977 19.8739 31.457 19.6332 31.3653C19.3924 31.2736 19.1353 31.2328 18.878 31.2456C18.6061 31.2397 18.3358 31.2891 18.0835 31.3908C17.8312 31.4924 17.6022 31.6443 17.4104 31.8371C17.2186 32.0299 17.068 32.2597 16.9676 32.5125C16.8673 32.7653 16.8193 33.0358 16.8267 33.3077H17.7537C17.7502 33.1576 17.7767 33.0083 17.8316 32.8685C17.8865 32.7288 17.9688 32.6014 18.0736 32.4939C18.1784 32.3863 18.3036 32.3008 18.4419 32.2422C18.5801 32.1837 18.7287 32.1533 18.8789 32.153C19.0143 32.1451 19.1498 32.1665 19.2762 32.2157C19.4026 32.2649 19.517 32.3407 19.6115 32.438C19.706 32.5353 19.7784 32.6518 19.8239 32.7796C19.8693 32.9074 19.8867 33.0435 19.8749 33.1786C19.869 33.3973 19.7929 33.6083 19.658 33.7806C19.523 33.9528 19.3363 34.0771 19.1254 34.1352L18.8 34.2643C18.4813 34.3411 18.2032 34.5347 18.0205 34.8069C17.8379 35.079 17.7641 35.4098 17.8138 35.7338L17.8236 36.0781ZM18.2674 38.2092C18.3552 38.2123 18.4427 38.1978 18.5248 38.1665C18.6069 38.1352 18.6819 38.0878 18.7453 38.027C18.8088 37.9662 18.8594 37.8934 18.8942 37.8127C18.929 37.732 18.9472 37.6452 18.9479 37.5574C18.9471 37.4696 18.9288 37.3829 18.8939 37.3023C18.8591 37.2218 18.8084 37.149 18.745 37.0883C18.6816 37.0277 18.6066 36.9803 18.5246 36.9491C18.4426 36.9178 18.3551 36.9034 18.2674 36.9065C18.1797 36.9034 18.0923 36.9178 18.0102 36.9491C17.9282 36.9803 17.8533 37.0277 17.7898 37.0883C17.7264 37.149 17.6758 37.2218 17.6409 37.3023C17.6061 37.3829 17.5877 37.4696 17.5869 37.5574C17.5876 37.6452 17.6059 37.732 17.6407 37.8127C17.6755 37.8934 17.7261 37.9662 17.7895 38.027C17.853 38.0878 17.9279 38.1352 18.01 38.1665C18.0921 38.1978 18.1796 38.2123 18.2674 38.2092Z" fill="white"/>
<g filter="url(#filter2_d_1224_219)">
<path d="M73.7586 45.5258H13.2414C12.0035 45.5258 11 46.5293 11 47.7672V58.974C11 60.2119 12.0035 61.2154 13.2414 61.2154H73.7586C74.9965 61.2154 76 60.2119 76 58.974V47.7672C76 46.5293 74.9965 45.5258 73.7586 45.5258Z" fill="white"/>
</g>
<path d="M54.0345 49.112H30.2759C29.5331 49.112 28.931 49.7141 28.931 50.4568C28.931 51.1995 29.5331 51.8016 30.2759 51.8016H54.0345C54.7772 51.8016 55.3793 51.1995 55.3793 50.4568C55.3793 49.7141 54.7772 49.112 54.0345 49.112Z" fill="#93BC9C"/>
<path d="M37 54.9396H30.2759C29.5331 54.9396 28.931 55.5417 28.931 56.2844C28.931 57.0271 29.5331 57.6292 30.2759 57.6292H37C37.7427 57.6292 38.3448 57.0271 38.3448 56.2844C38.3448 55.5417 37.7427 54.9396 37 54.9396Z" fill="#222226"/>
<path d="M23.1035 46.8706H14.5862C13.3483 46.8706 12.3448 47.8741 12.3448 49.112V57.6292C12.3448 58.8671 13.3483 59.8706 14.5862 59.8706H23.1035C24.3413 59.8706 25.3448 58.8671 25.3448 57.6292V49.112C25.3448 47.8741 24.3413 46.8706 23.1035 46.8706Z" fill="#93BC9C"/>
<path d="M17.8236 54.8409H18.7202L18.73 54.4958C18.73 54.0421 19.016 53.9238 19.4204 53.7956C19.826 53.6802 20.183 53.4359 20.4374 53.0996C20.6919 52.7633 20.8299 52.3533 20.8307 51.9316C20.8395 51.6742 20.7949 51.4177 20.6995 51.1783C20.6041 50.939 20.4601 50.7221 20.2765 50.5414C20.093 50.3606 19.8739 50.2199 19.6332 50.1282C19.3924 50.0365 19.1353 49.9957 18.878 50.0085C18.6061 50.0026 18.3358 50.052 18.0835 50.1536C17.8312 50.2553 17.6022 50.4072 17.4104 50.6C17.2186 50.7928 17.068 51.0226 16.9676 51.2754C16.8673 51.5282 16.8193 51.7987 16.8267 52.0706H17.7537C17.7502 51.9205 17.7767 51.7712 17.8316 51.6314C17.8865 51.4917 17.9688 51.3643 18.0736 51.2567C18.1784 51.1492 18.3036 51.0636 18.4419 51.0051C18.5801 50.9466 18.7287 50.9162 18.8789 50.9158C19.0143 50.908 19.1498 50.9294 19.2762 50.9786C19.4026 51.0278 19.517 51.1036 19.6115 51.2009C19.706 51.2982 19.7784 51.4147 19.8239 51.5425C19.8693 51.6703 19.8867 51.8064 19.8749 51.9415C19.869 52.1602 19.7929 52.3712 19.658 52.5434C19.523 52.7157 19.3363 52.84 19.1254 52.8981L18.8 53.0272C18.4813 53.104 18.2032 53.2976 18.0205 53.5698C17.8379 53.8419 17.7641 54.1727 17.8138 54.4967L17.8236 54.8409ZM18.2674 56.972C18.3552 56.9752 18.4427 56.9606 18.5248 56.9294C18.6069 56.8981 18.6819 56.8506 18.7453 56.7899C18.8088 56.7291 18.8594 56.6562 18.8942 56.5756C18.929 56.4949 18.9472 56.4081 18.9479 56.3203C18.9471 56.2325 18.9288 56.1458 18.8939 56.0652C18.8591 55.9846 18.8084 55.9119 18.745 55.8512C18.6816 55.7905 18.6066 55.7432 18.5246 55.712C18.4426 55.6807 18.3551 55.6662 18.2674 55.6694C18.1797 55.6662 18.0923 55.6807 18.0102 55.712C17.9282 55.7432 17.8533 55.7905 17.7898 55.8512C17.7264 55.9119 17.6758 55.9846 17.6409 56.0652C17.6061 56.1458 17.5877 56.2325 17.5869 56.3203C17.5876 56.4081 17.6059 56.4949 17.6407 56.5756C17.6755 56.6562 17.7261 56.7291 17.7895 56.7899C17.853 56.8506 17.9279 56.8981 18.01 56.9294C18.0921 56.9606 18.1796 56.9752 18.2674 56.972Z" fill="white"/>
</g>
<defs>
<filter id="filter0_d_1224_219" x="5" y="5" width="77" height="27.6897" filterUnits="userSpaceOnUse" color-interpolation-filters="sRGB">
<feFlood flood-opacity="0" result="BackgroundImageFix"/>
<feColorMatrix in="SourceAlpha" type="matrix" values="0 0 0 0 0 0 0 0 0 0 0 0 0 0 0 0 0 0 127 0" result="hardAlpha"/>
<feOffset dy="3"/>
<feGaussianBlur stdDeviation="3"/>
<feColorMatrix type="matrix" values="0 0 0 0 0 0 0 0 0 0 0 0 0 0 0 0 0 0 0.161 0"/>
<feBlend mode="normal" in2="BackgroundImageFix" result="effect1_dropShadow_1224_219"/>
<feBlend mode="normal" in="SourceGraphic" in2="effect1_dropShadow_1224_219" result="shape"/>
</filter>
<filter id="filter1_d_1224_219" x="5" y="23.7629" width="77" height="27.6897" filterUnits="userSpaceOnUse" color-interpolation-filters="sRGB">
<feFlood flood-opacity="0" result="BackgroundImageFix"/>
<feColorMatrix in="SourceAlpha" type="matrix" values="0 0 0 0 0 0 0 0 0 0 0 0 0 0 0 0 0 0 127 0" result="hardAlpha"/>
<feOffset dy="3"/>
<feGaussianBlur stdDeviation="3"/>
<feColorMatrix type="matrix" values="0 0 0 0 0 0 0 0 0 0 0 0 0 0 0 0 0 0 0.161 0"/>
<feBlend mode="normal" in2="BackgroundImageFix" result="effect1_dropShadow_1224_219"/>
<feBlend mode="normal" in="SourceGraphic" in2="effect1_dropShadow_1224_219" result="shape"/>
</filter>
<filter id="filter2_d_1224_219" x="5" y="42.5258" width="77" height="27.6897" filterUnits="userSpaceOnUse" color-interpolation-filters="sRGB">
<feFlood flood-opacity="0" result="BackgroundImageFix"/>
<feColorMatrix in="SourceAlpha" type="matrix" values="0 0 0 0 0 0 0 0 0 0 0 0 0 0 0 0 0 0 127 0" result="hardAlpha"/>
<feOffset dy="3"/>
<feGaussianBlur stdDeviation="3"/>
<feColorMatrix type="matrix" values="0 0 0 0 0 0 0 0 0 0 0 0 0 0 0 0 0 0 0.161 0"/>
<feBlend mode="normal" in2="BackgroundImageFix" result="effect1_dropShadow_1224_219"/>
<feBlend mode="normal" in="SourceGraphic" in2="effect1_dropShadow_1224_219" result="shape"/>
</filter>
</defs>
</svg>
