<svg width="94" height="39" viewBox="0 0 94 39" fill="none" xmlns="http://www.w3.org/2000/svg">
<circle cx="32.5607" cy="31.5888" r="25.757" fill="#AF9C4D"/>
<circle cx="1.45794" cy="21.8691" r="1.45794" fill="#AF9C4D"/>
<circle cx="1.45794" cy="39.3644" r="1.45794" fill="#AF9C4D"/>
<circle cx="45.1962" cy="2.4299" r="1.45794" fill="#AF9C4D"/>
<circle cx="26.7289" cy="1.45794" r="1.45794" fill="#AF9C4D"/>
<circle cx="10.2056" cy="8.26167" r="1.45794" fill="#AF9C4D"/>
<circle cx="58.8038" cy="11.1776" r="1.45794" fill="#AF9C4D"/>
<path fill-rule="evenodd" clip-rule="evenodd" d="M30.5191 48.2616C30.5236 48.2616 30.5282 48.2616 30.5328 48.2616C30.5374 48.2616 30.542 48.2616 30.5466 48.2616H80.5889C91.8617 48.2616 101 39.1232 101 27.8504H100.93C100.977 27.3707 101 26.8843 101 26.3925C101 18.0721 94.2551 11.3271 85.9347 11.3271C80.324 11.3271 75.4297 14.3942 72.8369 18.9431C70.9909 17.8114 68.8194 17.1589 66.4954 17.1589C62.5211 17.1589 58.9924 19.0671 56.7758 22.0174C54.5592 19.0671 51.0306 17.1589 47.0562 17.1589C41.8282 17.1589 37.3715 20.4609 35.6578 25.0932C34.1006 24.3677 32.364 23.9626 30.5328 23.9626C23.8228 23.9626 18.3833 29.4021 18.3833 36.1121C18.3833 42.6594 23.5622 47.997 30.0469 48.2521V48.2616H30.5191Z" fill="white"/>
</svg>
